<?xml version="1.0" standalone="no"?>
<!DOCTYPE svg PUBLIC "-//W3C//DTD SVG 20010904//EN"
 "http://www.w3.org/TR/2001/REC-SVG-20010904/DTD/svg10.dtd">
<svg version="1.0" xmlns="http://www.w3.org/2000/svg"
 width="354.000000pt" height="268.000000pt" viewBox="0 0 354.000000 268.000000"
 preserveAspectRatio="xMidYMid meet">

<g transform="translate(0.000000,268.000000) scale(0.100000,-0.100000)"
fill="#000000" stroke="none">
<path d="M0 1345 l0 -1335 1770 0 1770 0 0 1335 0 1335 -1770 0 -1770 0 0
-1335z m1248 1228 c-9 -10 -19 -29 -23 -42 -4 -14 -37 -54 -72 -89 -36 -35
-62 -66 -59 -69 9 -10 97 48 157 103 88 80 132 98 247 96 87 -2 108 -16 48
-31 -29 -7 -63 -26 -89 -50 -60 -55 -77 -61 -164 -62 -73 0 -81 -2 -132 -37
-30 -20 -56 -43 -59 -49 -6 -21 35 -15 88 12 37 19 64 25 107 24 64 -1 173
-16 133 -18 -14 0 -53 -14 -87 -30 -42 -20 -73 -29 -95 -26 -18 2 -68 7 -112
10 l-78 5 -74 -72 c-41 -39 -74 -75 -74 -80 0 -18 31 -6 81 32 30 22 58 40 64
40 29 1 153 20 168 26 10 3 17 1 17 -5 0 -6 -8 -11 -18 -11 -10 0 -43 -18 -72
-40 -29 -22 -56 -40 -59 -40 -41 0 -211 -37 -224 -49 -19 -16 -107 -144 -107
-155 0 -19 31 1 75 48 50 54 58 58 190 93 13 3 2 -13 -32 -49 -44 -45 -66 -58
-135 -82 -46 -16 -94 -35 -107 -44 -23 -14 -24 -13 -15 4 5 11 9 71 9 134 1
128 8 151 70 210 l36 35 -15 -30 c-9 -16 -16 -50 -16 -75 0 -26 -13 -75 -29
-115 -31 -77 -30 -96 3 -51 11 16 38 52 59 80 27 37 37 60 37 88 0 20 5 61 11
90 10 47 19 61 87 125 41 40 78 71 80 68 3 -3 -6 -14 -20 -25 -17 -13 -30 -38
-38 -70 -7 -31 -29 -72 -56 -107 -74 -95 -56 -106 35 -21 65 59 82 82 92 118
25 91 55 136 111 168 62 35 77 39 56 15z m1208 -59 c12 -12 32 -53 44 -91 11
-37 25 -76 30 -85 8 -14 2 -17 -43 -22 -161 -16 -174 -15 -234 15 -32 15 -68
29 -80 29 -13 0 -23 3 -23 8 0 4 46 8 101 10 92 2 106 0 150 -23 49 -25 99
-33 99 -15 0 5 -18 22 -40 36 -48 32 -54 44 -6 15 67 -42 63 -16 -8 52 -29 29
-66 74 -81 101 l-27 48 48 -27 c27 -15 59 -38 70 -51z m-191 24 c27 -14 64
-43 82 -65 l32 -39 -74 -2 c-84 -3 -98 2 -170 63 -35 29 -64 45 -95 50 -41 8
-43 9 -20 16 14 5 64 7 111 6 69 -2 95 -8 134 -29z m362 -127 c45 -43 73 -111
73 -178 0 -24 7 -57 15 -73 15 -29 15 -30 -7 -21 -13 5 -63 15 -113 21 -99 14
-115 19 -163 61 -18 16 -40 29 -49 29 -9 0 -14 2 -12 5 3 2 47 -2 98 -9 80
-12 98 -19 138 -50 26 -20 55 -36 65 -36 21 0 23 11 6 28 -9 9 -9 12 0 12 22
0 12 28 -33 89 -25 34 -48 76 -52 94 -3 18 -10 40 -15 50 -15 29 7 19 49 -22z
m-46 -118 c13 -16 12 -17 -3 -4 -17 13 -22 21 -14 21 2 0 10 -8 17 -17z m243
-68 c18 -26 21 -43 21 -145 0 -63 4 -123 8 -132 8 -15 0 -14 -55 7 -34 13 -84
31 -110 40 -32 12 -59 32 -84 61 -19 24 -31 44 -26 44 6 0 39 -9 76 -20 55
-17 72 -28 107 -70 41 -48 69 -64 69 -37 0 7 -8 24 -17 37 -16 24 -16 24 0 11
15 -12 17 -11 17 7 0 11 -11 44 -25 74 -14 29 -25 71 -25 95 0 23 -5 54 -11
69 l-10 28 22 -19 c11 -11 31 -33 43 -50z m-2135 -126 c-18 -36 -20 -52 -14
-109 4 -43 2 -89 -5 -123 -16 -71 -8 -94 15 -39 25 60 29 47 5 -16 -11 -29
-20 -60 -20 -69 0 -14 3 -14 21 3 12 10 29 35 39 54 24 47 52 70 134 113 67
35 69 36 45 9 -13 -15 -33 -45 -44 -66 -15 -29 -39 -52 -94 -85 -106 -66 -120
-80 -131 -131 l-9 -45 5 45 c3 25 8 59 11 77 3 17 -4 69 -16 116 -12 47 -21
97 -21 112 0 35 79 195 96 195 3 0 -5 -19 -17 -41z m2266 -71 c30 -64 31 -97
6 -196 -11 -43 -21 -89 -23 -104 l-3 -26 -91 59 c-74 48 -96 68 -118 109 l-27
50 48 -21 c61 -26 86 -49 123 -116 17 -29 37 -53 45 -53 17 0 19 23 5 50 -9
16 -8 18 6 13 15 -6 16 -1 9 38 -8 41 -14 249 -7 249 2 0 14 -24 27 -52z
m-542 -21 c83 -41 111 -87 115 -187 3 -63 0 -84 -17 -117 -23 -46 -63 -83
-110 -102 -36 -16 -33 -26 9 -35 56 -11 134 -71 166 -128 26 -48 29 -62 29
-143 0 -73 -4 -98 -22 -131 -55 -103 -161 -154 -323 -154 -55 0 -68 3 -64 14
3 8 22 17 42 21 85 16 158 78 181 154 14 49 14 143 -1 192 -14 47 -68 113
-112 136 -17 9 -60 19 -96 22 -36 3 -64 11 -63 16 1 6 28 15 59 22 79 16 101
30 132 83 36 60 38 173 5 235 -44 83 -87 105 -204 105 l-79 0 0 -131 0 -132
33 5 c17 3 38 3 45 1 18 -7 15 -43 -5 -43 -24 0 -103 -40 -103 -52 0 -5 25
-32 55 -59 180 -165 194 -480 29 -658 -150 -162 -391 -194 -657 -86 l-59 23
-85 -41 c-77 -37 -93 -41 -167 -41 -88 -1 -113 9 -147 61 -24 36 -24 80 1 120
46 77 135 81 276 14 47 -23 94 -41 104 -41 26 0 104 98 285 355 100 143 196
265 234 299 33 30 25 43 -31 56 -73 18 -304 7 -383 -18 -191 -60 -313 -173
-331 -305 -6 -42 -4 -49 25 -78 29 -29 36 -31 84 -27 29 2 73 14 98 26 62 30
151 112 190 175 38 62 49 71 68 52 12 -11 10 -20 -13 -60 -33 -56 -127 -153
-181 -187 -94 -59 -191 -73 -256 -36 -146 82 -43 334 181 441 137 65 330 98
460 79 41 -6 78 -8 83 -5 6 3 8 55 5 124 -6 129 -11 143 -65 166 -33 13 -42
28 -23 35 5 2 130 1 277 -2 l268 -5 58 -28z m-1841 -150 c-8 -27 -5 -45 11
-88 13 -32 22 -80 23 -119 2 -85 3 -88 14 -70 7 11 10 5 10 -23 0 -49 14 -40
34 21 16 48 59 97 124 141 l33 23 -7 -29 c-4 -15 -15 -44 -24 -63 -21 -42
-166 -175 -175 -160 -3 5 -4 14 -1 19 4 5 -14 51 -40 103 -50 103 -52 126 -19
236 18 58 33 66 17 9z m2483 -97 c6 -56 4 -65 -31 -136 -21 -42 -40 -92 -43
-110 l-6 -34 -86 82 c-69 67 -88 91 -96 126 -6 23 -9 42 -7 42 3 0 29 -18 58
-39 44 -33 58 -51 78 -102 27 -68 48 -87 48 -45 0 14 4 26 9 26 5 0 11 33 14
73 4 68 34 177 49 177 3 0 9 -27 13 -60z m-2548 -158 c-2 -38 4 -57 30 -97 17
-28 37 -72 42 -100 21 -96 21 -97 36 -91 9 3 15 -1 15 -10 0 -9 6 -14 13 -12
7 3 14 30 18 65 5 56 10 66 60 121 30 33 55 59 56 58 1 -1 -1 -25 -5 -52 -6
-38 -21 -66 -60 -117 -70 -92 -75 -103 -69 -156 4 -36 3 -40 -3 -16 -5 17 -11
42 -14 56 -3 15 -22 47 -43 70 -77 92 -93 127 -93 200 0 60 8 129 15 129 2 0
2 -21 2 -48z m2569 -189 c-13 -21 -36 -51 -51 -68 -20 -23 -25 -26 -21 -10 3
11 8 38 12 60 3 22 21 66 40 98 19 33 35 75 36 95 1 20 4 -2 5 -50 3 -79 1
-91 -21 -125z m-201 62 c41 -48 48 -62 54 -117 7 -58 7 -61 -8 -39 -9 12 -33
44 -54 71 -25 34 -39 65 -44 95 -3 25 -3 45 0 45 3 0 27 -25 52 -55z m-2378
-127 c-3 -8 -6 -5 -6 6 -1 11 2 17 5 13 3 -3 4 -12 1 -19z m248 -190 c-46
-100 -50 -126 -31 -172 8 -20 11 -34 7 -31 -5 3 -17 28 -27 56 -16 43 -32 62
-91 111 -63 51 -75 66 -88 110 -26 88 -20 93 39 29 35 -38 59 -76 71 -110 11
-36 21 -51 31 -47 7 3 16 -4 19 -15 14 -42 25 -15 25 59 0 72 2 82 38 137 l37
60 3 -54 c3 -45 -3 -68 -33 -133z m2122 100 c27 -56 30 -69 24 -122 l-6 -59
-32 80 c-31 74 -46 182 -25 169 5 -3 22 -33 39 -68z m112 30 c-6 -13 -13 -24
-14 -26 -1 -1 -8 4 -15 13 -11 13 -10 14 4 9 11 -4 16 -1 16 10 0 9 5 16 10
16 7 0 7 -8 -1 -22z m97 -51 c-14 -48 -25 -62 -79 -107 -34 -28 -69 -62 -78
-76 -16 -24 -17 -24 -22 -5 -3 12 -1 19 4 15 5 -3 14 6 20 20 7 14 16 23 21
20 5 -3 20 21 34 53 21 48 99 143 112 136 2 -1 -3 -26 -12 -56z m-2239 -212
c-2 -27 -12 -81 -22 -119 -18 -66 -18 -69 0 -102 23 -44 124 -153 125 -136 0
7 -14 40 -31 74 -28 55 -30 67 -24 116 12 94 17 100 45 45 22 -42 25 -61 25
-158 l0 -110 40 -37 c22 -21 35 -38 30 -38 -6 0 -33 22 -59 49 -40 41 -66 56
-148 87 -81 30 -105 44 -136 79 -42 48 -88 125 -74 125 5 0 15 -11 22 -25 16
-30 47 -51 103 -71 27 -9 58 -33 88 -67 26 -29 50 -49 54 -45 4 3 -16 36 -44
73 -28 36 -56 76 -62 88 -7 12 -18 25 -25 30 -7 4 -10 15 -7 24 5 12 11 6 27
-23 l21 -39 3 28 c2 16 -1 42 -7 59 -17 47 -13 95 11 161 l22 60 13 -39 c8
-22 12 -61 10 -89z m1977 -87 c-13 -44 -15 -64 -7 -77 8 -13 7 -22 -4 -36 -15
-20 -15 -20 -9 0 3 11 -6 63 -19 115 -25 93 -26 121 -3 180 10 23 12 19 35
-49 l25 -73 -18 -60z m-2189 92 c6 0 21 -10 32 -22 22 -26 65 -99 61 -104 -8
-8 -91 38 -114 63 -23 25 -64 93 -64 107 0 3 16 -6 36 -19 20 -14 42 -25 49
-25z m2409 8 c-31 -61 -54 -86 -99 -107 -25 -11 -47 -21 -49 -21 -8 0 36 79
53 94 14 13 67 44 109 65 1 0 -5 -14 -14 -31z m-348 -296 c-14 -28 -26 -59
-26 -68 0 -15 2 -15 21 2 12 10 29 18 39 16 11 -2 33 16 59 47 31 37 54 54 91
66 48 16 110 65 110 87 0 6 3 9 6 6 11 -11 -77 -137 -109 -157 -18 -11 -70
-33 -116 -50 -46 -17 -89 -35 -96 -41 -19 -16 -25 10 -25 108 0 74 4 95 27
142 l27 55 9 -81 c9 -76 8 -83 -17 -132z m174 159 c0 -6 -4 -13 -10 -16 -5 -3
-10 1 -10 9 0 9 5 16 10 16 6 0 10 -4 10 -9z m-1775 -216 c12 -27 26 -79 30
-115 3 -35 11 -72 16 -83 10 -17 9 -18 -14 -3 -13 9 -55 19 -93 22 -111 9
-138 20 -204 81 -33 31 -58 58 -55 61 3 3 14 -3 24 -12 11 -10 39 -20 63 -22
75 -9 86 -13 133 -54 48 -41 91 -57 64 -23 -8 10 0 7 18 -7 18 -13 35 -21 39
-18 7 8 -20 61 -41 78 -29 24 -46 69 -51 138 l-6 67 27 -30 c14 -16 37 -52 50
-80z m1490 8 c-5 -38 -15 -64 -34 -86 -15 -18 -35 -43 -44 -57 l-17 -24 0 35
c0 54 26 131 62 180 38 51 44 41 33 -48z m-1295 -214 l42 -98 61 -25 c34 -14
55 -25 47 -25 -8 0 -45 12 -82 27 -62 25 -74 27 -154 21 -101 -8 -123 -3 -197
44 -68 44 -95 79 -34 45 12 -7 56 -15 98 -18 54 -5 84 -12 105 -27 34 -24 84
-40 84 -27 0 5 -23 22 -51 37 -28 16 -49 30 -47 33 3 2 31 -11 63 -31 33 -19
62 -35 67 -35 18 0 6 17 -42 58 -49 43 -61 67 -86 177 l-7 30 46 -44 c35 -34
56 -68 87 -142z m1145 99 c-21 -76 -37 -102 -80 -128 -40 -25 -56 -55 -25 -47
11 3 20 1 20 -4 0 -16 34 -9 75 16 28 17 55 25 90 25 28 0 74 9 103 19 46 16
51 16 38 2 -8 -9 -40 -31 -71 -50 -56 -34 -58 -34 -179 -35 l-122 -1 24 60
c46 119 67 158 101 186 19 16 37 26 39 24 3 -2 -3 -32 -13 -67z m348 13 c-63
-61 -113 -81 -195 -81 l-31 0 43 33 c24 17 52 39 63 46 10 8 46 18 79 22 33 4
68 14 76 23 9 9 19 16 22 16 3 -1 -23 -27 -57 -59z m-143 25 c0 -2 -8 -10 -17
-17 -16 -13 -17 -12 -4 4 13 16 21 21 21 13z m-1273 -88 c54 -30 89 -65 133
-128 62 -90 77 -100 161 -107 66 -6 73 -5 61 9 -7 9 -32 21 -56 28 -45 12 -69
33 -121 104 -19 27 -23 38 -12 33 8 -3 35 -11 59 -17 42 -12 68 -34 149 -128
55 -65 78 -60 164 34 58 63 79 78 125 93 52 17 77 19 54 3 -6 -4 -24 -28 -42
-53 -19 -28 -44 -51 -64 -58 -18 -7 -49 -20 -68 -29 l-35 -16 35 -6 c29 -4 32
-7 15 -13 -34 -14 3 -26 61 -20 41 4 65 1 103 -16 27 -11 69 -21 93 -22 l43
-1 -60 -13 c-102 -23 -135 -19 -224 27 -78 39 -122 46 -70 11 13 -9 51 -43 84
-75 34 -31 76 -64 95 -72 39 -16 32 -21 -43 -30 -48 -6 -48 -6 -63 32 -26 66
-47 103 -78 133 -57 56 -120 27 -168 -77 -15 -33 -29 -67 -32 -78 -6 -16 -13
-17 -64 -11 -74 9 -82 15 -42 32 19 7 54 32 79 56 26 23 63 57 85 75 39 34 42
57 3 32 -107 -70 -161 -81 -287 -56 l-65 12 65 6 c37 3 84 15 108 27 35 18 48
20 84 12 24 -6 49 -6 57 -1 21 11 11 15 -97 31 -71 11 -89 11 -135 -3 -111
-34 -152 -32 -259 15 l-53 24 60 -5 c34 -2 78 1 99 6 31 9 47 7 87 -9 61 -23
83 -25 75 -4 -5 13 0 15 32 9 34 -7 36 -6 23 10 -8 10 -35 28 -60 41 -25 12
-53 31 -62 41 -17 20 -80 134 -74 134 2 0 21 -10 42 -22z m886 -53 c-33 -60
-46 -72 -98 -100 -73 -40 -85 -61 -29 -51 27 5 34 4 24 -3 -27 -18 0 -25 43
-12 44 14 268 22 261 9 -3 -4 -41 -19 -86 -33 -80 -25 -83 -25 -155 -11 -41 9
-82 20 -92 25 -11 6 -32 6 -57 1 -60 -14 -72 -12 -34 8 21 10 55 47 91 97 43
61 69 87 110 111 30 17 55 30 57 29 1 -1 -15 -32 -35 -70z m297 50 c0 -8 -6
-15 -12 -15 -7 0 -33 -14 -58 -31 -51 -34 -120 -72 -120 -65 0 3 25 19 55 36
30 17 60 40 65 50 6 11 16 17 24 14 7 -3 19 2 26 11 16 19 20 19 20 0z m-320
-175 c-8 -5 -19 -10 -25 -10 -5 0 -3 5 5 10 8 5 20 10 25 10 6 0 3 -5 -5 -10z
m-247 -67 c-7 -2 -19 -2 -25 0 -7 3 -2 5 12 5 14 0 19 -2 13 -5z"/>
<path d="M1898 1533 c-36 -43 -100 -130 -143 -193 -111 -161 -209 -295 -268
-363 -27 -32 -48 -59 -46 -60 15 -11 94 -39 144 -52 200 -52 378 -14 488 104
60 64 86 119 103 214 17 96 3 180 -44 273 -33 65 -120 154 -151 154 -12 0 -43
-29 -83 -77z m158 -20 c-8 -25 -51 -73 -65 -73 -6 0 -12 -17 -13 -37 -1 -21
-2 -47 -3 -58 -1 -11 -5 -26 -9 -33 -4 -8 -5 -16 -2 -19 3 -4 6 0 6 8 1 8 7
-4 15 -25 12 -34 12 -45 -2 -80 -8 -23 -16 -60 -18 -83 -2 -37 0 -43 26 -53
16 -7 34 -18 40 -26 10 -12 -6 -14 -100 -14 l-111 0 38 34 c31 29 35 38 26 53
-6 11 -8 29 -3 46 4 16 3 40 -2 54 -8 21 -6 28 11 40 14 10 19 21 15 33 -3 10
1 34 9 53 12 29 12 39 1 53 -11 16 -14 14 -33 -22 -12 -21 -21 -33 -22 -25 0
8 12 35 27 60 14 25 29 59 33 76 3 18 13 31 24 33 16 4 18 -1 13 -32 l-6 -36
39 20 c22 11 44 32 51 49 14 32 25 35 15 4z m19 -83 c3 -5 -1 -10 -9 -10 -9 0
-16 5 -16 10 0 6 4 10 9 10 6 0 13 -4 16 -10z m-211 -146 c9 -36 -1 -43 -14
-10 -12 33 -12 36 -1 36 5 0 12 -12 15 -26z"/>
<path d="M1055 965 c-58 -57 -11 -125 85 -125 46 0 158 34 179 55 11 11 0 20
-73 54 -104 49 -154 53 -191 16z"/>
</g>
</svg>
